<svg width="32" height="29" viewBox="0 0 32 29" fill="none" xmlns="http://www.w3.org/2000/svg">
<path d="M31.0975 22.892C31.0715 22.694 30.8655 22.437 30.6495 22.181C30.4905 21.992 30.2555 21.862 29.9865 21.728C29.7635 21.617 29.5295 21.468 29.2285 21.44C28.9825 21.417 28.7015 21.41 28.4005 21.467C28.1065 21.523 27.8265 21.657 27.5535 21.633C27.2725 21.609 27.0245 21.391 26.7475 21.313C26.4845 21.238 26.1835 21.259 25.9075 21.163C25.6495 21.073 25.3825 20.991 25.1015 20.905C24.8425 20.826 24.5865 20.7 24.2975 20.641C24.0345 20.588 23.7595 20.525 23.4635 20.503C23.1955 20.483 22.9105 20.471 22.6095 20.486C22.3415 20.499 22.0675 20.6 21.7695 20.648C21.4675 20.697 21.2145 20.767 20.9825 20.832C20.6865 20.916 20.4445 21.01 20.2215 21.101C19.9475 21.212 19.6905 21.269 19.4515 21.355C19.2075 21.442 18.9625 21.588 18.6685 21.606C18.4365 21.62 18.1685 21.59 17.8555 21.537C17.4535 21.531 17.4865 21.584 17.0665 21.634C16.7805 21.668 16.4755 21.683 16.2605 21.711C16.1135 21.741 15.8335 21.642 15.5255 21.683C15.3015 21.713 15.0545 21.768 14.8035 21.801C14.5525 21.834 14.3025 21.871 14.0765 21.906C13.7765 21.953 13.5455 22.109 13.3915 22.156C13.3365 22.173 12.9965 22.057 12.6065 22.037C12.3585 22.024 12.0815 22.083 11.8345 22.074C11.4525 22.059 11.1375 22.033 11.0775 22.068C10.8645 22.193 10.7275 22.402 10.7035 22.62C10.6785 22.849 10.7455 23.122 10.9405 23.265C10.9625 23.281 11.4565 23.426 11.4845 23.436C11.6385 23.487 11.8905 23.598 12.2245 23.626C12.4575 23.646 12.7165 23.734 12.9875 23.75C13.2425 23.765 13.5045 23.781 13.7585 23.799C14.0325 23.819 14.3095 23.701 14.5405 23.731C14.8785 23.775 15.1125 23.909 15.2445 23.993C15.3975 24.213 15.2405 24.412 14.9525 24.517C14.7255 24.6 14.4155 24.495 14.2265 24.515C13.9755 24.542 13.6845 24.625 13.3585 24.647C13.0805 24.666 12.7835 24.66 12.4795 24.673C12.1865 24.686 11.8915 24.798 11.5995 24.802C11.2945 24.807 10.9955 24.708 10.7185 24.701C10.3895 24.694 10.0855 24.766 9.83851 24.739C9.70651 24.725 9.34551 24.608 8.98651 24.522C8.56651 24.422 8.14351 24.385 8.12551 24.382C7.88351 24.34 7.65851 24.222 7.42851 24.152C7.19751 24.081 6.99051 23.935 6.75851 23.864C6.60351 23.816 6.36051 23.828 6.14451 23.802C5.83551 23.765 5.55251 23.814 5.54551 23.816C5.31151 23.818 5.03251 23.825 4.72351 23.837C4.46551 23.847 4.18751 23.831 3.90051 23.853C3.63151 23.874 3.34551 23.83 3.06851 23.866C2.79151 23.902 2.51051 23.935 2.24451 23.99C1.96251 24.048 1.72051 24.223 1.47051 24.306C1.18751 24.401 0.932508 24.491 0.719508 24.624C0.459508 24.787 0.167509 24.915 0.0615093 25.146C-0.0534907 25.396 0.00550789 25.723 0.133508 25.973C0.244508 26.191 0.504508 26.336 0.727508 26.509C0.934508 26.67 1.12651 26.9 1.37451 26.986C1.63051 27.075 1.91751 27.038 2.16951 27.101C2.43051 27.166 2.68851 27.201 2.94651 27.241C3.21151 27.282 3.45751 27.469 3.71851 27.488C3.98451 27.507 4.25551 27.346 4.51851 27.346C4.78351 27.346 5.04851 27.429 5.31251 27.414C5.57651 27.399 5.84051 27.38 6.10351 27.353C6.36651 27.326 6.62651 27.27 6.88851 27.237C7.15051 27.204 7.41051 27.151 7.67251 27.114C7.93451 27.077 8.20351 27.095 8.46551 27.06C8.72751 27.025 8.98651 26.978 9.24951 26.947C9.51251 26.916 9.77151 26.86 10.0355 26.838C10.2975 26.817 10.5645 26.883 10.8295 26.875C11.0925 26.867 11.3515 26.872 11.6175 26.88C11.8795 26.888 12.1525 26.759 12.4185 26.787C12.7095 26.818 12.9985 26.873 13.2745 26.931C13.5575 26.991 13.8165 27.143 14.0905 27.218C14.3675 27.293 14.6215 27.444 14.8975 27.519C15.1735 27.594 15.4705 27.583 15.7525 27.641C16.0235 27.697 16.2855 27.831 16.5625 27.874C16.8365 27.916 17.1175 27.949 17.3965 27.979C17.6725 28.008 17.9585 27.965 18.2385 27.982C18.5165 27.999 18.7965 27.993 19.0765 27.999C19.3565 28.005 19.6355 28.059 19.9145 28.053C20.1935 28.047 20.4725 27.997 20.7515 27.98C21.0305 27.963 21.3045 27.885 21.5815 27.858C21.8605 27.831 22.1495 27.894 22.4245 27.857C22.7025 27.819 22.9665 27.691 23.2395 27.643C23.5165 27.594 23.8065 27.62 24.0765 27.561C24.3515 27.501 24.5905 27.302 24.8565 27.232C25.0835 27.173 25.3695 27.274 25.6015 27.205C25.8455 27.132 26.0565 26.969 26.2595 26.874C26.5165 26.753 26.7605 26.634 26.8585 26.457C26.9605 26.273 26.9705 25.986 26.7885 25.715C26.3745 25.101 26.1735 25.237 25.8895 24.928C25.7295 24.754 25.8875 24.708 26.2265 24.554C26.4225 24.465 26.6205 24.251 26.8765 24.181C27.1205 24.114 27.3745 24.029 27.6035 23.986C27.9255 23.926 28.2145 24.032 28.3455 24.037C28.7255 24.051 29.0065 24.051 29.2485 24.076C29.5605 24.107 29.8125 24.113 30.1315 24.032C30.3645 23.973 30.5305 23.754 30.7005 23.553C30.8735 23.348 31.1315 23.142 31.0985 22.891L31.0975 22.892Z" fill="#026A38"/>
<path fill-rule="evenodd" clip-rule="evenodd" d="M1.19551 12.13L1.10452 12.221L1.05852 12.449L0.876514 12.722V12.95L0.694515 13.36V13.679L0.603516 13.861L0.740515 14.589L0.649515 14.771V15.044L0.831514 15.454L1.10452 15.727L1.15051 15.909L1.60551 16.41L1.96951 16.683H2.06051L2.42451 16.911L2.65252 16.957L3.15351 17.185H3.51752L3.65451 17.276H3.83652L4.01851 17.367H4.42851L4.56552 17.458H5.11152L5.38452 17.595L5.56651 17.777L5.61251 18.596L5.56651 18.642V19.598L5.47552 19.735L5.52151 20.281L5.47552 20.327L5.41051 22.766L5.36452 22.812L5.45551 22.949H5.59251L5.77551 22.955L6.12551 22.961L6.75851 23.046H6.98652L7.07751 22.955L6.79552 21.83V20.465L6.88651 20.328L6.84052 19.782L6.93151 19.645L6.84052 19.19L6.93151 19.008L6.88552 18.553L7.06751 18.189L7.02151 17.87L7.47651 17.46H7.74952L7.97751 17.323H8.20551L8.34251 17.232H8.61551L9.07051 16.959L9.52551 16.822L10.0715 16.458L10.5725 15.912L10.6185 15.73L10.8915 15.275V14.683L10.9825 14.455L10.8915 14.227L10.8455 13.817L10.7085 13.68L10.3445 13.498H10.2075L9.97952 13.589H9.47852L9.43251 13.635L9.20452 13.589L8.97651 13.771L8.74851 13.862H8.47552L8.11152 14.181L7.65652 14.409L6.97351 15.092L6.70052 15.593L6.56351 15.73H6.42652L6.28951 15.593L6.24352 15.456L5.97051 15.228L5.87951 14.864L5.65151 14.409L5.46951 14.227L5.37852 13.908L5.10551 13.589L5.05951 13.452L4.33151 12.815L3.42151 12.405H2.92052L2.55651 12.177L2.32851 12.131L2.19151 12.04H1.41751L1.18951 12.131L1.19551 12.13Z" fill="#00BCB4"/>
<path fill-rule="evenodd" clip-rule="evenodd" d="M23.4727 11.629L23.0487 11.441L21.9187 11.394L21.4947 11.629H21.2597L20.9297 11.817H20.8357L20.4587 12.147H20.3177L20.2237 12.053L20.2707 11.723L20.1297 11.252V10.969L20.0357 10.734L19.6117 10.216L19.3767 10.169L19.0467 9.98096L18.4347 9.93396L17.8697 10.075L17.5867 10.216L17.3037 10.546L16.9737 11.205L17.0207 11.723L16.8797 11.958H16.7387L16.5977 11.817L16.3627 11.723L16.0797 11.44L15.7967 11.346H15.5137L15.1367 11.205L14.8537 11.299L14.4297 11.252L13.7237 11.629L13.2997 12.147L13.1587 12.571V13.183L13.4417 13.748L13.7717 14.125L13.9597 14.172L14.6657 14.549H14.9487L15.2317 14.737L15.5617 14.69L16.0797 14.973L16.5507 14.926L16.8807 15.114H17.1157L17.3987 15.397V15.821L17.3047 15.962L17.3517 16.339L17.2577 16.48V16.763L17.1167 16.998V17.281L17.0697 17.328L17.1637 18.081L17.0227 18.364L17.0697 18.647L16.9287 18.93L16.8527 20.016L16.7587 20.157L16.8057 20.345H17.0407L17.3517 20.269L18.0757 20.345L18.2637 20.204L18.2457 19.071L18.3867 18.741V18.035L18.4807 17.847V17.141L18.6687 16.858L18.7157 16.01L18.8567 15.775V15.587L19.0447 15.352L19.3747 15.305L19.5157 15.211H20.0337L20.1747 15.117H20.5987L20.7867 15.023L21.1167 15.07L21.4467 14.882H21.8707L22.4357 14.552H22.6707L22.8587 14.364L23.1417 14.223L23.7067 13.611L23.9417 13.093L23.9887 12.528L23.8947 12.104L23.4707 11.633L23.4727 11.629Z" fill="#FB76A4"/>
<path fill-rule="evenodd" clip-rule="evenodd" d="M15.5034 1.223L15.2554 1.479L15.0904 2.053L15.2644 2.585L15.2504 2.793L15.3484 2.903L15.4314 3.221L15.0824 3.722L14.4344 3.996L14.1174 4.332L13.9844 4.741L14.1944 5.359L14.5914 5.696L14.8364 5.794L15.6114 5.82L15.9184 5.943L16.0274 6.2L16.0134 6.408L15.8874 6.71301L15.9064 7.361L16.0514 7.704L16.2104 7.839L16.7014 8.035L16.8314 7.98L16.9974 8.011L17.2134 7.92L17.3064 7.78L17.6164 7.548L18.0514 7.011L18.2244 6.938L18.6974 7.092L18.9644 7.484L19.2644 7.711L19.6754 7.84L19.8054 7.785L20.0754 7.822L20.2484 7.749L20.3414 7.609L20.5824 7.457L20.8444 6.993L20.8724 6.577L20.7634 6.32L20.7954 6.155L20.7124 5.83701L20.8384 5.53201L21.2524 5.306L21.6524 5.288L22.2144 5.051L22.3944 4.874L22.5704 4.446L22.5014 3.92L22.1834 3.65L21.4584 3.502L21.0904 3.355L21.0364 3.22701L21.1514 2.775L21.6914 2.244L21.8174 1.939L21.8314 1.731L21.7294 1.37L21.4294 1.14301L21.1844 1.045L20.6224 1.28201L20.4744 1.294L20.1834 1.569L19.9244 1.679L19.5744 1.57401L19.3254 1.225L19.3784 0.748001L19.2584 0.344002L19.0024 0.098999L18.8184 0.0250015L18.4004 0L18.1414 0.110001L17.8244 0.445999L17.6274 1.18501L17.3904 1.58801L17.2604 1.64301L17.0514 1.63L16.8674 1.556L16.4704 1.219L16.1634 1.096H15.8064L15.5034 1.223Z" fill="#DECB02"/>
<path fill-rule="evenodd" clip-rule="evenodd" d="M13.8606 16.931L13.6556 16.983L13.1616 17.409L12.9046 17.474L12.7776 17.406L12.5286 17.067L12.4016 16.999L12.2986 17.025L12.2196 17.145L12.1606 17.561L12.0026 17.802L11.2086 17.902L11.2046 18.104L11.6196 18.451L11.7306 18.674L11.3086 19.383L11.4356 19.451L12.2176 19.304L12.4706 19.441L12.6886 20.089L12.7516 20.123L12.8546 20.097L13.2766 19.388L13.4816 19.336L14.1176 19.477L14.2716 19.438L14.2876 19.283L14.1256 19.073L14.0546 18.79L13.9916 18.756L14.0196 18.649L14.1896 18.456L14.4856 18.331L14.7066 18.125L14.6196 17.996L13.9956 17.902L13.7936 17.752L13.9356 17.014L13.8606 16.933V16.931Z" fill="#C3AE95"/>
<path fill-rule="evenodd" clip-rule="evenodd" d="M25.5327 5.70703L25.3607 5.87904V6.05103L25.2747 6.18003V6.43703L25.1887 6.60903L25.1027 7.03803L24.9737 7.16703L24.8447 7.12403H24.6297L24.5867 7.16703L23.9857 7.12403L23.9427 7.16703H23.7277L23.5987 7.25303L23.5557 7.33904L23.5987 7.46803L24.1997 8.19703L24.3287 8.49703L23.8137 9.18303L23.4707 9.52603L23.4277 9.69804L23.5567 9.82703L24.1577 9.78403L24.3297 9.69804H24.4587L24.5877 9.78403L24.9307 9.74104L25.1027 9.82703L25.4027 9.87003L25.5317 10.042L25.6607 10.428V10.6L25.8327 10.986V11.158L25.9617 11.287H26.0907L26.2197 11.158L26.3917 10.858L26.7777 10.429H26.9067L27.6357 11.115H27.7217L27.8077 11.029V10.686L27.9367 10.343V10.086L28.0657 9.95703H28.2807L28.4527 10.043H28.9677L29.0967 10.129H29.2257L29.3117 10.043L28.6257 8.84203L29.3977 8.07003L29.4407 7.89803L29.3547 7.81203H29.0547L28.9257 7.72604H28.7537L28.3247 7.59703L28.1527 7.42503L28.1957 6.99603L28.4107 6.13803V5.92303L28.2817 5.79403L28.0247 5.88004L27.2957 6.48103L27.0807 6.56703L26.8237 6.82404H26.6087L26.3937 6.52403L26.1367 6.30903L25.9217 5.96603L25.7067 5.75103L25.5347 5.70803L25.5327 5.70703Z" fill="#0A0A0E"/>
<path fill-rule="evenodd" clip-rule="evenodd" d="M8.9666 11.374H8.8496L8.5286 11.578L8.20761 11.899L8.12061 12.103V12.249L8.2376 12.395L8.3546 12.453H8.5876L8.70461 12.395L8.8796 12.22L8.9966 11.987L9.0256 11.841V11.433L8.9676 11.375L8.9666 11.374Z" fill="#5B7FC3"/>
<path fill-rule="evenodd" clip-rule="evenodd" d="M10.7454 9.828L10.5704 9.857L10.4834 9.944L10.3964 9.973L10.1634 10.206L10.0464 10.498V10.556L10.1634 10.731L10.2804 10.789L10.4264 10.76L10.5724 10.673L10.6894 10.527L10.8064 10.148V9.886L10.7484 9.828H10.7454Z" fill="#5B7FC3"/>
<path fill-rule="evenodd" clip-rule="evenodd" d="M8.20877 9.71204H8.12177L7.94676 9.79903L7.59677 10.12L7.50977 10.324V10.441L7.62676 10.616L7.88877 10.645L8.12177 10.441L8.20877 10.266L8.26677 10.004V9.77103L8.20877 9.71204Z" fill="#5B7FC3"/>
<path fill-rule="evenodd" clip-rule="evenodd" d="M6.11257 10.907H6.02557L5.85057 10.994L5.50057 11.315L5.41357 11.519V11.636L5.53057 11.811L5.79257 11.84L6.02557 11.636L6.11257 11.461L6.17057 11.199V10.966L6.11257 10.907Z" fill="#5B7FC3"/>
<path fill-rule="evenodd" clip-rule="evenodd" d="M25.6057 17.99L25.6557 17.992C25.6937 17.994 25.7307 17.985 25.7637 17.966L26.0007 17.83C26.0137 17.823 26.0247 17.814 26.0357 17.804L26.3027 17.56C26.3217 17.543 26.3367 17.522 26.3477 17.5L26.4027 17.386C26.4147 17.362 26.4207 17.335 26.4227 17.308V17.283C26.4257 17.238 26.4127 17.193 26.3857 17.157L26.3507 17.109C26.3337 17.086 26.3117 17.066 26.2867 17.052L26.2597 17.037C26.2327 17.022 26.2027 17.013 26.1717 17.012L26.0487 17.007C26.0177 17.006 25.9867 17.011 25.9587 17.024L25.9207 17.041C25.9007 17.05 25.8827 17.062 25.8677 17.076L25.7457 17.188C25.7297 17.202 25.7167 17.219 25.7057 17.238L25.6167 17.398C25.6077 17.413 25.6017 17.43 25.5977 17.447L25.5757 17.536C25.5727 17.549 25.5707 17.562 25.5697 17.575L25.5537 17.934L25.6057 17.99Z" fill="#AC754B"/>
<path fill-rule="evenodd" clip-rule="evenodd" d="M23.4104 17.662L23.4604 17.664C23.4984 17.666 23.5354 17.657 23.5684 17.638L23.8054 17.502C23.8184 17.495 23.8294 17.486 23.8404 17.476L24.1074 17.232C24.1264 17.215 24.1414 17.194 24.1524 17.172L24.2074 17.058C24.2194 17.034 24.2254 17.007 24.2274 16.98V16.955C24.2304 16.91 24.2174 16.865 24.1904 16.829L24.1554 16.781C24.1384 16.758 24.1164 16.738 24.0914 16.724L24.0644 16.709C24.0374 16.694 24.0074 16.685 23.9764 16.684L23.8534 16.679C23.8224 16.678 23.7914 16.683 23.7634 16.696L23.7254 16.713C23.7054 16.722 23.6874 16.734 23.6724 16.748L23.5504 16.86C23.5344 16.874 23.5214 16.891 23.5104 16.91L23.4214 17.07C23.4124 17.085 23.4064 17.102 23.4024 17.119L23.3804 17.208C23.3774 17.221 23.3754 17.234 23.3744 17.247L23.3584 17.606L23.4104 17.662Z" fill="#AC754B"/>
<path fill-rule="evenodd" clip-rule="evenodd" d="M27.7464 18.1759L27.8464 18.1639C27.8874 18.1589 27.9264 18.1409 27.9564 18.1129L27.9944 18.0779L28.0764 18.0549L28.2724 17.8759C28.2924 17.8579 28.3084 17.8359 28.3194 17.8109L28.4224 17.5819L28.4244 17.5279L28.3504 17.4059C28.3324 17.3759 28.3074 17.3519 28.2774 17.3349C28.2384 17.3129 28.1944 17.3049 28.1504 17.3119L28.1154 17.3169C28.0924 17.3199 28.0714 17.3279 28.0514 17.3389L27.9744 17.3809C27.9534 17.3919 27.9354 17.4069 27.9194 17.4249L27.8534 17.4999C27.8374 17.5189 27.8244 17.5409 27.8154 17.5639L27.7144 17.8469C27.7074 17.8659 27.7034 17.8849 27.7034 17.9049L27.6934 18.1189L27.7464 18.1759Z" fill="#AC754B"/>
<path fill-rule="evenodd" clip-rule="evenodd" d="M26.2395 19.564L26.3205 19.568L26.4615 19.505C26.4785 19.497 26.4945 19.488 26.5085 19.476L26.7925 19.238C26.8145 19.22 26.8315 19.197 26.8435 19.172L26.8965 19.062C26.9085 19.038 26.9145 19.011 26.9165 18.984V18.977C26.9185 18.938 26.9085 18.899 26.8885 18.865L26.8665 18.829C26.8365 18.779 26.7855 18.744 26.7265 18.735L26.6625 18.725C26.6075 18.716 26.5515 18.731 26.5075 18.766L26.3815 18.867C26.3615 18.883 26.3445 18.903 26.3315 18.926L26.2745 19.029C26.2665 19.043 26.2605 19.058 26.2565 19.074L26.2035 19.27C26.1995 19.284 26.1975 19.298 26.1965 19.313L26.1875 19.508L26.2395 19.564Z" fill="#AC754B"/>
<path fill-rule="evenodd" clip-rule="evenodd" d="M24.1674 19.079L24.2484 19.071L24.3784 18.989C24.3944 18.979 24.4084 18.967 24.4204 18.954L24.6684 18.679C24.6874 18.658 24.7014 18.633 24.7104 18.606L24.7474 18.489C24.7554 18.463 24.7584 18.436 24.7564 18.409V18.402C24.7524 18.363 24.7364 18.326 24.7124 18.295L24.6854 18.262C24.6484 18.216 24.5934 18.19 24.5344 18.189H24.4694C24.4134 18.187 24.3604 18.21 24.3214 18.25L24.2104 18.367C24.1924 18.386 24.1784 18.408 24.1694 18.432L24.1264 18.542C24.1204 18.557 24.1164 18.573 24.1144 18.589L24.0894 18.791C24.0874 18.805 24.0874 18.82 24.0894 18.834L24.1074 19.028L24.1664 19.077L24.1674 19.079Z" fill="#AC754B"/>
<path fill-rule="evenodd" clip-rule="evenodd" d="M4.02058 8.40997L4.21658 8.97598L4.41858 9.12197L4.46858 9.23997L4.61458 9.36297L5.09658 9.62097L5.32658 9.61597L5.64558 9.71097H5.97058L6.16658 9.62697L6.31758 9.65497L6.74958 9.46997L6.97958 9.46497L7.18158 9.28597L7.65258 9.08397L7.73658 8.95497L8.05658 8.72497L8.52758 8.52297L8.71858 8.53397L8.91458 8.44997L9.35158 8.49497L10.0806 8.78697L10.7866 8.80997L11.3076 8.72598L11.4086 8.63597L11.9356 8.45697L12.0586 8.31097L12.2546 8.22697L12.3386 8.09797L12.4956 8.03097L12.6806 7.81197L13.0506 7.04997L13.1236 6.46097L12.8046 5.71497L12.3616 5.43997L11.7336 5.38397L11.2846 5.52997L11.1336 5.50197L10.8976 5.60297L10.6956 5.78197L10.0736 5.95497L9.47358 5.74697L9.36758 5.60697L8.89158 5.25397L8.49958 5.09697L8.11858 5.07397L8.00058 5.12397H7.67558L7.00258 5.50497L6.60958 5.99797L6.23958 6.75997L5.97558 7.01197L5.70058 7.12997L5.02258 7.28097L4.70858 7.41497L4.54558 7.57697L4.34958 7.66097L4.14158 7.93597L4.01758 8.40697L4.02058 8.40997Z" fill="#2D55BE"/>
<path fill-rule="evenodd" clip-rule="evenodd" d="M30.0215 12.745L29.9125 12.617L29.6695 12.514L29.4715 12.594L28.8945 12.766L28.5425 13.344L28.4915 13.778L28.3185 13.704L28.1895 13.526L27.9615 13.388L27.4715 13.385L27.2735 13.465L27.0175 13.683L26.8485 13.831L26.7885 14.069L26.7985 14.237L26.6835 14.193H26.5495L26.3655 14.108L26.1885 14.007L25.8165 14.013L25.4775 13.893L25.4285 13.913L25.2095 13.99L25.0155 14.136L24.8495 14.332L24.8615 14.574L24.8145 14.893L25.1055 15.203L25.3135 15.291L25.4975 15.533L25.9135 15.71L25.9335 15.759L26.6065 16.004L26.7745 15.994L26.8785 16.038L27.1945 15.968L27.4175 16.022L28.5635 15.731L29.1305 15.358L29.5935 14.941L29.6525 14.802L29.8305 14.673L29.8695 14.485L30.1105 14.014L30.0905 13.965L30.2085 13.688L30.1835 13.555L30.1225 13.279L30.1265 13.076L30.0215 12.745Z" fill="#813A00"/>
</svg>
